{"title":"Mere Dad Ki Maruti 2013 Hindi Movies Best SCam Rip XviD New Sour","uid":8262590,"size":733305162,"categoryP":"video","categoryS":"movies","magnet":"?xt=urn:btih:5b5587e98dac941b3dbfabf4f034666e0a2dabf7&amp;dn=Mere+Dad+Ki+Maruti+2013+Hindi+Movies+Best+SCam+Rip+XviD+New+Sour&amp;tr=udp%3A%2F%2Ftracker.openbittorrent.com%3A80&amp;tr=udp%3A%2F%2Fopen.demonii.com%3A1337&amp;tr=udp%3A%2F%2Ftracker.coppersurfer.tk%3A6969&amp;tr=udp%3A%2F%2Fexodus.desync.com%3A6969","seeders":1,"leechers":0,"uploader":"basicssom","files":2,"time":1363415941,"description":"Mere Dad Ki Maruti 2013 Hindi Movies Best SCam Rip XviD New Source Sample Included ~ rDX\n\nScreen Shots :\n &lt;a href=&quot;\nhttp://myimghosting.serveftp.com/13/MereDadKiMaruti.html&quot; rel=&quot;nofollow&quot; target=&quot;_NEW&quot;&gt;\nhttp://myimghosting.serveftp.com/13/MereDadKiMaruti.html&lt;/a&gt;\n &lt;a href=&quot;\nhttp://myimghost.cwahi.net/MereDadKiMaruti.html&quot; rel=&quot;nofollow&quot; target=&quot;_NEW&quot;&gt;\nhttp://myimghost.cwahi.net/MereDadKiMaruti.html&lt;/a&gt;\n\n\nFormat                                   : AVI\nFormat/Info                              : Audio Video Interleave\nFile size                                : 685 MiB\nDuration                                 : 1h 36mn\nOverall bit rate                         : 995 Kbps\nWriting library                          : MPlayer\n\nVideo\nID                                       : 0\nFormat                                   : MPEG-4 Visual\nFormat profile                           : Simple@L1\nFormat settings, BVOP                    : No\nFormat settings, QPel                    : No\nFormat settings, GMC                     : No warppoints\nFormat settings, Matrix                  : Default (H.263)\nCodec ID                                 : DX50\nCodec ID/Hint                            : DivX 5\nDuration                                 : 1h 36mn\nBit rate                                 : 342 Kbps\nWidth                                    : 352 pixels\nHeight                                   : 288 pixels\nDisplay aspect ratio                     : 1.222\nFrame rate                               : 25.000 fps\nStandard                                 : PAL\nColor space                              : YUV\nChroma subsampling                       : 4:2:0\nBit depth                                : 8 bits\nScan type                                : Interlaced\nScan order                               : Top Field First\nCompression mode                         : Lossy\nBits/(Pixel*Frame)                       : 0.135\nStream size                              : 235 MiB (34%)\nWriting library                          : Lavc52.30.1\n\nAudio\nID                                       : 1\nFormat                                   : MPEG Audio\nFormat version                           : Version 1\nFormat profile                           : Layer 3\nMode                                     : Joint stereo\nMode extension                           : MS Stereo\nCodec ID                                 : 55\nCodec ID/Hint                            : MP3\nDuration                                 : 1h 36mn\nBit rate mode                            : Constant\nBit rate                                 : 160 Kbps\nChannel(s)                               : 2 channels\nSampling rate                            : 44.1 KHz\nCompression mode                         : Lossy\nStream size                              : 110 MiB (16%)\nAlignment                                : Aligned on interleaves\nInterleave, duration                     : 26 ms (0.65 video frame)\nInterleave, preload duration             : 809 ms\nWriting library                          : LAME3.98.2","torrent":{"xt":"urn:btih:5b5587e98dac941b3dbfabf4f034666e0a2dabf7","amp;dn":"Mere+Dad+Ki+Maruti+2013+Hindi+Movies+Best+SCam+Rip+XviD+New+Sour","amp;tr":["udp%3A%2F%2Ftracker.openbittorrent.com%3A80","udp%3A%2F%2Fopen.demonii.com%3A1337","udp%3A%2F%2Ftracker.coppersurfer.tk%3A6969","udp%3A%2F%2Fexodus.desync.com%3A6969"],"infoHash":"5b5587e98dac941b3dbfabf4f034666e0a2dabf7","infoHashBuffer":{"type":"Buffer","data":[91,85,135,233,141,172,148,27,61,191,171,244,240,52,102,110,10,45,171,247]},"announce":[],"urlList":[]}}